<svg width="256" height="256" viewBox="0 0 256 256" fill="none" xmlns="http://www.w3.org/2000/svg">
<rect width="256" height="256" rx="15" fill="white"/>
<g clip-path="url(#clip0_11_6)">
<path d="M86.9761 87.8811V179.464C86.9761 187.196 93.2441 193.464 100.976 193.464H154.851M86.9761 133.131H154.851M168.851 208.548H171.018C178.75 208.548 185.018 202.28 185.018 194.548V192.381C185.018 184.649 178.75 178.381 171.018 178.381H168.851C161.119 178.381 154.851 184.649 154.851 192.381V194.548C154.851 202.28 161.119 208.548 168.851 208.548ZM168.851 148.214H171.018C178.75 148.214 185.018 141.946 185.018 134.214V132.048C185.018 124.316 178.75 118.048 171.018 118.048H168.851C161.119 118.048 154.851 124.316 154.851 132.048V134.214C154.851 141.946 161.119 148.214 168.851 148.214ZM78.3511 87.8811H95.6011C103.333 87.8811 109.601 81.6131 109.601 73.8811V56.6311C109.601 48.8991 103.333 42.6311 95.6011 42.6311H78.3511C70.6191 42.6311 64.3511 48.8991 64.3511 56.6311V73.8811C64.3511 81.6131 70.6191 87.8811 78.3511 87.8811Z" stroke="black" stroke-width="12"/>
</g>
<defs>
<clipPath id="clip0_11_6">
<rect width="181" height="181" fill="white" transform="translate(37 37)"/>
</clipPath>
</defs>
</svg>
